<?xml version="1.0" standalone="no"?><!DOCTYPE svg PUBLIC "-//W3C//DTD SVG 1.1//EN" "http://www.w3.org/Graphics/SVG/1.1/DTD/svg11.dtd"><svg t="1608237686567" class="icon" viewBox="0 0 1024 1024" version="1.1" xmlns="http://www.w3.org/2000/svg" p-id="3995" xmlns:xlink="http://www.w3.org/1999/xlink" width="200" height="200"><defs><style type="text/css"></style></defs><path d="M530.285714 548.571429v182.857142c64.347429-5.778286 91.428571-41.819429 91.428572-89.417142 0-45.842286-21.065143-72.96-91.428572-93.44z m-54.857143-91.428572v-164.571428c-59.849143 7.588571-91.428571 42.605714-91.428571 81.005714 0 38.4 24.941714 66.688 91.428571 83.565714z m51.931429 13.476572l19.602286 5.065142C654.336 501.449143 713.142857 547.053714 713.142857 637.001143c0 103.460571-81.664 162.157714-185.782857 169.764571V877.714286h-46.134857v-70.948572c-103.716571-8.027429-185.782857-68.406857-188.653714-169.764571h84.516571c7.350857 49.408 38.4 85.723429 104.137143 92.891428V545.810286l-16.749714-4.224c-103.716571-24.923429-159.652571-73.069714-159.652572-158.793143 0-94.592 73.508571-157.092571 176.402286-165.12V146.285714h46.134857v71.369143c102.070857 8.448 175.981714 71.789714 179.254857 167.661714h-84.937143c-5.302857-53.211429-42.057143-84.041143-94.317714-90.806857v176.091429z" p-id="3996"></path></svg>