<?xml version="1.0" standalone="no"?><!DOCTYPE svg PUBLIC "-//W3C//DTD SVG 1.1//EN" "http://www.w3.org/Graphics/SVG/1.1/DTD/svg11.dtd"><svg t="1608253220270" class="icon" viewBox="0 0 1043 1024" version="1.1" xmlns="http://www.w3.org/2000/svg" p-id="3581" xmlns:xlink="http://www.w3.org/1999/xlink" width="203.7109375" height="200"><defs><style type="text/css"></style></defs><path d="M1023.757088 64.059696c0-36.797712-28.798209-65.595921-63.996021-63.99602h-447.972141c-25.598408 0-44.797214 17.598906-62.39612 35.197811L43.018077 440.036315c-55.996518 55.996518-57.596418 145.590946-3.199801 199.987564l345.57851 343.978608c54.396617 54.396617 143.991046 52.796717 199.987563-3.199801l380.77632-380.77632c28.798209-28.798209 57.596418-52.796717 57.596419-89.594428V64.059696z m-63.996021 447.972142c0 17.598906-31.99801 39.997513-49.596915 57.596418l-398.375226 398.375226c-28.798209 27.198309-86.394627-30.39811-113.592936-57.596418L55.817281 569.628256c-27.198309-27.198309-28.798209-28.798209 0-57.596418l430.373237-415.974132c15.999005-15.999005 6.399602-31.99801 25.598408-31.99801h399.975126c17.598906 0 47.997015 30.39811 47.997015 47.997015V512.031838z m-247.984578-335.979106c-75.195324 0-135.991543 60.796219-135.991543 135.991543s60.796219 135.991543 135.991543 135.991543 135.991543-60.796219 135.991543-135.991543-60.796219-135.991543-135.991543-135.991543z m0 223.986071c-47.997015 0-87.994528-39.997513-87.994528-87.994528S663.779474 224.049747 711.776489 224.049747s87.994528 39.997513 87.994528 87.994528-39.997513 87.994528-87.994528 87.994528z" p-id="3582"></path></svg>